<svg width="114" height="114" viewBox="0 0 114 114" fill="none" xmlns="http://www.w3.org/2000/svg">
<rect width="114" height="114" rx="20.7273" fill="#B38A48"/>
<path d="M45.1389 77.3409C47.265 72.065 51.5953 68.0114 57 68.0114C62.4047 68.0114 66.7349 72.065 68.8611 77.3409C69.5385 79.0219 69.4008 80.7989 68.7377 82.1902C68.0976 83.5333 66.7624 84.8523 64.8795 84.8523H49.1204C47.2375 84.8523 45.9023 83.5333 45.2622 82.1902C44.5991 80.7989 44.4614 79.0219 45.1389 77.3409Z" fill="#583F17"/>
<path d="M80.309 41.5945C79.6501 41.5029 78.5902 41.4546 76.9563 41.4546H73.8415C72.4106 41.4546 71.2506 40.2946 71.2506 38.8637C71.2506 37.4328 72.4106 36.2728 73.8415 36.2728L77.1165 36.2728C78.5335 36.2726 79.8549 36.2724 80.9147 36.4197C82.071 36.5804 83.4238 36.9763 84.4285 38.1866C85.4491 39.4161 85.5671 40.8282 85.4749 42.0006C85.3923 43.051 85.0645 44.4755 84.7591 45.8023L83.7468 50.2046C81.9725 57.92 75.5072 63.5817 67.7481 64.7442C66.333 64.9562 65.0139 63.9809 64.8019 62.5658C64.5899 61.1507 65.5652 59.8316 66.9803 59.6196C72.7504 58.7551 77.4258 54.57 78.6967 49.0433L79.7091 44.641C80.0653 43.0919 80.2604 42.2134 80.309 41.5945Z" fill="#583F17"/>
<path d="M33.6915 41.5945C34.3504 41.5029 35.4103 41.4546 37.0442 41.4546H40.159C41.5899 41.4546 42.7499 40.2946 42.7499 38.8637C42.7499 37.4328 41.5899 36.2728 40.159 36.2728L36.884 36.2728C35.467 36.2726 34.1456 36.2724 33.0858 36.4197C31.9295 36.5804 30.5767 36.9763 29.572 38.1866C28.5513 39.4161 28.4334 40.8282 28.5256 42.0006C28.6082 43.051 28.8988 44.3137 29.2042 45.6405L30.2537 50.2046C32.028 57.92 38.4933 63.5817 46.2524 64.7442C47.6675 64.9562 48.9866 63.9809 49.1986 62.5658C49.4106 61.1507 48.4353 59.8316 47.0202 59.6196C41.2501 58.7551 36.5747 54.57 35.3037 49.0433L34.2914 44.641C33.9352 43.0919 33.7401 42.2134 33.6915 41.5945Z" fill="#583F17"/>
<path d="M49.5553 29.1478L49.7107 29.1478L64.4447 29.1478C66.655 29.1476 68.5453 29.1475 70.0548 29.3928C71.6987 29.66 73.1476 30.2539 74.2693 31.6135C75.352 32.9258 75.7235 34.3982 75.777 36.0312C75.8263 37.538 75.6057 39.3685 75.3464 41.5192C74.3352 49.9119 72.1194 57.4543 69.0827 62.817C66.101 68.0827 61.989 71.8978 57 71.8978C52.011 71.8978 47.899 68.0827 44.9173 62.817C41.8806 57.4543 39.6648 49.9119 38.6536 41.5192C38.3943 39.3685 38.1737 37.538 38.223 36.0312C38.2765 34.3982 38.648 32.9258 39.7307 31.6135C40.8524 30.2539 42.3013 29.66 43.9452 29.3928C45.4547 29.1475 47.345 29.1476 49.5553 29.1478Z" fill="#583F17"/>
</svg>
