<svg width="115" height="115" viewBox="0 0 115 115" fill="none" xmlns="http://www.w3.org/2000/svg">
<rect width="115" height="115" rx="20.9091" fill="#FFD365"/>
<path d="M45.5349 78.0192C47.6797 72.6971 52.0479 68.6079 57.5 68.6079C62.9521 68.6079 67.3204 72.6971 69.4652 78.0192C70.1486 79.715 70.0096 81.5076 69.3407 82.9111C68.695 84.2659 67.3481 85.5965 65.4487 85.5965H49.5514C47.652 85.5965 46.305 84.2659 45.6593 82.9111C44.9904 81.5076 44.8515 79.715 45.5349 78.0192Z" fill="#5F5434"/>
<path d="M81.0135 41.9593C80.3488 41.8669 79.2796 41.8182 77.6314 41.8182H74.4893C73.0458 41.8182 71.8756 40.648 71.8756 39.2045C71.8756 37.7611 73.0458 36.5909 74.4893 36.5909L77.7931 36.5909C79.2224 36.5907 80.5555 36.5905 81.6245 36.7391C82.791 36.9012 84.1557 37.3006 85.1691 38.5215C86.1988 39.7618 86.3177 41.1863 86.2247 42.3689C86.1414 43.4286 85.8107 44.8655 85.5027 46.204L84.4814 50.6449C82.6916 58.428 76.1696 64.1393 68.3425 65.3121C66.9149 65.5259 65.5843 64.5421 65.3704 63.1146C65.1565 61.687 66.1404 60.3564 67.5679 60.1425C73.3886 59.2704 78.105 55.0486 79.3871 49.4734L80.4083 45.0325C80.7677 43.4698 80.9645 42.5836 81.0135 41.9593Z" fill="#5F5434"/>
<path d="M33.9871 41.9593C34.6519 41.8669 35.721 41.8182 37.3693 41.8182H40.5114C41.9549 41.8182 43.125 40.648 43.125 39.2045C43.125 37.7611 41.9549 36.5909 40.5114 36.5909L37.2076 36.5909C35.7782 36.5907 34.4452 36.5905 33.3762 36.7391C32.2097 36.9012 30.845 37.3006 29.8316 38.5215C28.8019 39.7618 28.683 41.1863 28.7759 42.3689C28.8592 43.4286 29.1524 44.7023 29.4605 46.0408L30.5192 50.6449C32.3091 58.428 38.8311 64.1393 46.6582 65.3121C48.0858 65.5259 49.4164 64.5421 49.6303 63.1146C49.8442 61.687 48.8603 60.3564 47.4328 60.1425C41.6121 59.2704 36.8956 55.0486 35.6136 49.4734L34.5923 45.0325C34.233 43.4698 34.0362 42.5836 33.9871 41.9593Z" fill="#5F5434"/>
<path d="M49.99 29.4034L50.1467 29.4034L65.0099 29.4034C67.2397 29.4033 69.1466 29.4031 70.6693 29.6506C72.3276 29.9201 73.7893 30.5192 74.9208 31.8907C76.013 33.2145 76.3878 34.6999 76.4417 36.3472C76.4915 37.8672 76.2689 39.7138 76.0073 41.8833C74.9872 50.3497 72.752 57.9582 69.6887 63.368C66.6808 68.6798 62.5328 72.5284 57.5 72.5284C52.4672 72.5284 48.3192 68.6798 45.3113 63.368C42.2479 57.9582 40.0127 50.3497 38.9926 41.8833C38.7311 39.7138 38.5085 37.8672 38.5583 36.3472C38.6122 34.6999 38.987 33.2145 40.0792 31.8907C41.2107 30.5192 42.6723 29.9201 44.3307 29.6506C45.8534 29.4031 47.7603 29.4033 49.99 29.4034Z" fill="#5F5434"/>
</svg>
