<svg width="113" height="113" viewBox="0 0 113 113" fill="none" xmlns="http://www.w3.org/2000/svg">
<rect width="113" height="113" rx="20.5455" fill="#CDCDCD"/>
<path d="M44.7429 76.6624C46.8504 71.4328 51.1428 67.4148 56.5 67.4148C61.8573 67.4148 66.1496 71.4328 68.2571 76.6624C68.9286 78.3287 68.7921 80.0901 68.1348 81.4692C67.5003 82.8005 66.1768 84.108 64.3104 84.108H48.6896C46.8232 84.108 45.4997 82.8005 44.8653 81.4692C44.208 80.0901 44.0715 78.3287 44.7429 76.6624Z" fill="#585858"/>
<path d="M79.6046 41.2296C78.9515 41.1388 77.9009 41.0909 76.2813 41.0909H73.1938C71.7755 41.0909 70.6256 39.9411 70.6256 38.5227C70.6256 37.1044 71.7755 35.9546 73.1938 35.9546L76.4401 35.9545C77.8447 35.9543 79.1545 35.9541 80.205 36.1002C81.3512 36.2595 82.6921 36.6519 83.6879 37.8515C84.6997 39.0703 84.8165 40.47 84.7252 41.6321C84.6433 42.6733 84.3184 44.0853 84.0157 45.4005L83.0122 49.7641C81.2535 57.4119 74.8449 63.0239 67.1539 64.1762C65.7512 64.3864 64.4437 63.4196 64.2335 62.0169C64.0234 60.6142 64.9901 59.3067 66.3928 59.0965C72.1123 58.2396 76.7467 54.0912 78.0065 48.613L79.01 44.2494C79.3631 42.7138 79.5564 41.8431 79.6046 41.2296Z" fill="#585858"/>
<path d="M33.396 41.2296C34.0492 41.1388 35.0998 41.0909 36.7193 41.0909H39.8068C41.2252 41.0909 42.375 39.9411 42.375 38.5227C42.375 37.1044 41.2252 35.9546 39.8068 35.9546L36.5605 35.9545C35.156 35.9543 33.8461 35.9541 32.7957 36.1002C31.6495 36.2595 30.3085 36.6519 29.3127 37.8515C28.301 39.0703 28.1841 40.47 28.2755 41.6321C28.3573 42.6733 28.6454 43.9249 28.9481 45.2401L29.9884 49.7641C31.7471 57.4119 38.1558 63.0239 45.8467 64.1762C47.2494 64.3864 48.5569 63.4196 48.7671 62.0169C48.9773 60.6142 48.0105 59.3067 46.6078 59.0965C40.8884 58.2396 36.2539 54.0912 34.9942 48.613L33.9907 44.2494C33.6376 42.7138 33.4442 41.8431 33.396 41.2296Z" fill="#585858"/>
<path d="M49.1207 28.892L49.2747 28.892L63.8794 28.892C66.0704 28.8919 67.9441 28.8918 69.4403 29.1349C71.0698 29.3998 72.506 29.9884 73.6179 31.3361C74.691 32.6369 75.0593 34.0965 75.1123 35.7151C75.1612 37.2086 74.9425 39.0231 74.6855 41.1549V41.1549C73.6831 49.474 71.4868 56.9503 68.4768 62.2659C65.5212 67.4854 61.4453 71.267 56.5 71.267C51.5548 71.267 47.4789 67.4854 44.5233 62.2659C41.5132 56.9503 39.3169 49.474 38.3145 41.1549C38.0576 39.0231 37.8388 37.2086 37.8877 35.7151C37.9407 34.0965 38.309 32.6369 39.3822 31.3361C40.494 29.9884 41.9303 29.3998 43.5598 29.1349C45.056 28.8918 46.9297 28.8919 49.1207 28.892Z" fill="#585858"/>
</svg>
