<svg width="451" height="130" viewBox="0 0 451 130" fill="none" xmlns="http://www.w3.org/2000/svg">
<path d="M130 65.5488C130 101.145 100.864 130 64.9531 130C29.042 130 0.000140922 101.177 0 65.5801V0H130V65.5488ZM52.2471 48.5781V99.8584H80.3789V48.5781H98.8516V25.0566H80.3789L52.2471 48.5781ZM261.36 40.6611C266.724 40.6612 271.245 41.7617 275.316 43.9561C279.388 46.1531 282.571 49.2884 284.864 53.3574C287.157 57.429 288.304 62.1768 288.304 67.6055C288.304 69.1549 288.208 70.7718 288.013 72.4512L288.01 72.4541H250.5C250.757 75.8157 251.839 78.3844 253.747 80.1602C255.653 81.9386 257.996 82.8252 260.775 82.8252C264.909 82.8251 267.784 81.0808 269.401 77.5918H287.043C286.138 81.146 284.505 84.3441 282.149 87.1885C279.789 90.0328 276.833 92.2614 273.281 93.876C269.727 95.4931 265.752 96.2988 261.36 96.2988C256.062 96.2988 251.342 95.1682 247.208 92.9062C243.071 90.6442 239.843 87.4145 237.516 83.2129C235.189 79.0139 234.026 74.1026 234.026 68.4814C234.026 62.8602 235.173 57.9487 237.466 53.7471C239.759 49.5481 242.976 46.3167 247.112 44.0547C251.246 41.7927 255.997 40.6611 261.36 40.6611ZM424.014 40.6611C429.377 40.6611 433.899 41.7617 437.971 43.9561C442.042 46.153 445.224 49.2886 447.518 53.3574C449.811 57.429 450.957 62.1767 450.957 67.6055C450.957 69.1549 450.861 70.7718 450.666 72.4512L450.663 72.4541H413.153C413.411 75.8157 414.492 78.3844 416.4 80.1602C418.306 81.9386 420.649 82.8252 423.429 82.8252C427.563 82.8251 430.438 81.081 432.056 77.5918H449.696C448.791 81.146 447.158 84.3441 444.803 87.1885C442.442 90.0328 439.486 92.2614 435.935 93.876C432.38 95.4931 428.405 96.2988 424.014 96.2988C418.715 96.2988 413.995 95.1683 409.861 92.9062C405.725 90.6442 402.496 87.4144 400.169 83.2129C397.842 79.0139 396.68 74.1026 396.68 68.4814C396.68 62.8603 397.826 57.9487 400.119 53.7471C402.412 49.5481 405.629 46.3167 409.766 44.0547C413.9 41.7927 418.65 40.6611 424.014 40.6611ZM308.911 49.0957C310.461 46.5763 312.692 44.5405 315.599 42.9883C318.505 41.4361 321.834 40.6611 325.583 40.6611C330.042 40.6612 334.08 41.7927 337.699 44.0547C341.316 46.3167 344.176 49.5483 346.276 53.7471C348.375 57.9487 349.428 62.8266 349.428 68.3828C349.428 73.9389 348.377 78.8347 346.276 83.0674C344.176 87.3001 341.316 90.5659 337.699 92.8564C334.08 95.1496 330.042 96.2959 325.583 96.2959C321.769 96.2959 318.443 95.5369 315.599 94.0186C312.754 92.5002 310.526 90.4803 308.911 87.9609V95.5215H292.337V26.8896H308.911V49.0957ZM184.166 41.4414H195.021V55.2061H184.166V76.918C184.166 78.535 184.553 79.6974 185.328 80.4072C186.103 81.1196 187.395 81.4736 189.205 81.4736H195.117L195.12 81.4707V95.5264H186.688C180.68 95.5264 175.992 94.0576 172.633 91.1172C169.271 88.1766 167.591 83.3795 167.591 76.7236V55.2061H161V41.4414H167.591V37.6582L184.166 25.1133V41.4414ZM233.612 58.4014H229.058C224.921 58.4014 221.819 59.2906 219.752 61.0664C217.683 62.8448 216.65 65.9594 216.65 70.418V95.5244H200.075V41.4385H216.65V50.4531C218.587 47.4813 221.011 45.1382 223.92 43.4248C226.827 41.7141 230.058 40.8565 233.612 40.8564V58.4014ZM370.043 95.5244H353.468V26.8896H370.043V95.5244ZM392.637 95.5244H376.062V26.8896H392.637V95.5244ZM320.641 55.1045C317.281 55.1045 314.548 56.3001 312.255 58.6895C309.959 61.0814 308.815 64.3447 308.815 68.4785C308.815 72.6124 309.962 75.8782 312.255 78.2676C314.548 80.6596 317.344 81.8535 320.641 81.8535C323.937 81.8534 326.748 80.6418 329.072 78.2188C331.399 75.7955 332.562 72.5165 332.562 68.3799C332.561 64.2433 331.412 60.9985 329.121 58.6377V58.6426C326.828 56.2847 323.999 55.1046 320.641 55.1045ZM261.162 53.9424C258.256 53.9424 256.04 54.7508 254.135 56.3652C252.229 57.9824 251.048 60.2762 250.596 63.248H271.339C271.339 60.4062 270.369 58.1441 268.432 56.4619C266.492 54.7823 264.069 53.9424 261.162 53.9424ZM423.816 53.9424C420.91 53.9424 418.694 54.7507 416.788 56.3652C414.882 57.9824 413.702 60.2762 413.25 63.248H433.992C433.992 60.4064 433.023 58.1441 431.086 56.4619C429.146 54.7824 426.723 53.9425 423.816 53.9424ZM24.1152 48.5781H52.2471V25.0566L24.1152 48.5781Z" fill="white"/>
</svg>
