<svg width="78" height="26" viewBox="0 0 78 26" fill="none" xmlns="http://www.w3.org/2000/svg">
<path d="M30.5054 8.61973C29.8595 8.61973 29.2658 8.5139 28.7238 8.30259C28.1822 8.09129 27.7096 7.78947 27.3074 7.39858C26.9049 7.00768 26.5921 6.55264 26.3686 6.03346C26.1454 5.51499 26.0337 4.94023 26.0337 4.30987C26.0337 3.67952 26.1454 3.10475 26.3686 2.58629C26.5917 2.06711 26.9067 1.61278 27.3135 1.22117C27.7199 0.830273 28.1939 0.529171 28.7359 0.317152C29.2776 0.105846 29.8719 1.52588e-05 30.5171 1.52588e-05C31.2026 1.52588e-05 31.8286 0.117962 32.3944 0.353142C32.9599 0.588679 33.4382 0.938242 33.829 1.40076L32.8243 2.34683C32.5136 2.01936 32.1709 1.77385 31.7965 1.61029C31.4214 1.44709 31.0193 1.36477 30.5887 1.36477C30.158 1.36477 29.7498 1.43675 29.3868 1.58036C29.0238 1.72396 28.7092 1.92778 28.4427 2.19111C28.1754 2.45444 27.9661 2.76588 27.8149 3.12506C27.6629 3.48425 27.5875 3.87871 27.5875 4.30987C27.5875 4.74104 27.6633 5.13586 27.8149 5.49468C27.9661 5.85387 28.1754 6.1653 28.4427 6.42863C28.7092 6.69197 29.0242 6.89579 29.3868 7.03939C29.7498 7.18299 30.1499 7.25497 30.5887 7.25497C31.0275 7.25497 31.4214 7.17302 31.7965 7.00946C32.1709 6.8459 32.514 6.59647 32.8243 6.26116L33.829 7.20651C33.4382 7.66939 32.9599 8.02073 32.3944 8.26019C31.8282 8.49965 31.1986 8.61938 30.5054 8.61938V8.61973Z" fill="white"/>
<path d="M39.2571 0.120453H37.7264L33.9604 8.5H35.5509L36.3826 6.56119H40.5685L41.397 8.5H43.0348L39.2571 0.120453ZM36.9065 5.34039L38.4795 1.673L40.0464 5.34039H36.9065Z" fill="white"/>
<path d="M49.3244 5.75195C49.3668 5.73628 49.4084 5.71775 49.449 5.69957C49.9793 5.46012 50.3878 5.12017 50.675 4.68153C50.9622 4.24288 51.1049 3.71586 51.1049 3.10083C51.1049 2.4858 50.9622 1.94382 50.675 1.49697C50.3878 1.05084 49.9796 0.709119 49.449 0.473938C48.9194 0.238758 48.2835 0.120811 47.5425 0.120811H44.0986V8.50036H45.6531V6.05876H47.5422C47.6536 6.05876 47.7628 6.05626 47.8692 6.05056L49.575 8.50071H51.2484L49.3244 5.75231V5.75195ZM49.0187 4.3341C48.6717 4.62986 48.1554 4.77703 47.4706 4.77703H45.6528V1.43675H47.4706C48.1554 1.43675 48.6717 1.58285 49.0187 1.87397C49.365 2.16581 49.5383 2.57453 49.5383 3.10047C49.5383 3.62642 49.365 4.0387 49.0187 4.33375V4.3341Z" fill="white"/>
<path d="M58.9868 7.1837V7.30984C58.4828 7.65228 58.0099 8.04959 57.5757 8.5H52.8389V0.120453H58.9487V1.43675H54.3934V3.60433H58.4348V4.88499H54.3934V7.1837H58.9868Z" fill="white"/>
<path d="M62.2839 3.60433V4.88499H66.4449V3.60433H62.2839ZM60.8486 0.120453V6.33527C61.3533 6.14178 61.8736 5.99355 62.4031 5.89235V1.43675H66.9585V0.120453H60.8486Z" fill="white"/>
<path d="M74.0857 5.75196C74.128 5.73628 74.1697 5.71775 74.2102 5.69957C74.7405 5.46012 75.1491 5.12018 75.4363 4.68153C75.7235 4.24288 75.8669 3.71586 75.8669 3.10083C75.8669 2.4858 75.7235 1.94382 75.4363 1.49697C75.1491 1.05084 74.7409 0.709119 74.2102 0.473938C73.6807 0.238758 73.0447 0.120811 72.3038 0.120811H68.8599V7.0654C69.0382 7.17444 69.2136 7.28989 69.3862 7.41283C69.7549 7.67473 70.0976 7.95873 70.4147 8.26233V6.05912H72.3038C72.4152 6.05912 72.5237 6.05662 72.6308 6.05092L74.3366 8.50107H76.0099L74.086 5.75267L74.0857 5.75196ZM73.7803 4.3341C73.4333 4.62986 72.9169 4.77703 72.2322 4.77703H70.4144V1.43675H72.2322C72.9169 1.43675 73.4333 1.58285 73.7803 1.87397C74.1273 2.16581 74.2999 2.57453 74.2999 3.10048C74.2999 3.62642 74.1273 4.0387 73.7803 4.33375V4.3341Z" fill="white"/>
<path d="M26.9014 22.3867V11.9956H31.4524C32.5592 11.9956 33.5404 12.2109 34.3956 12.6413C35.2504 13.0721 35.9149 13.6779 36.3893 14.46C36.8636 15.2418 37.101 16.1523 37.101 17.1913C37.101 18.2304 36.8636 19.1408 36.3893 19.9223C35.9149 20.7044 35.2501 21.3106 34.3956 21.741C33.5404 22.1718 32.5592 22.3867 31.4524 22.3867H26.9014ZM28.8288 20.7536H31.3339C32.1147 20.7536 32.7891 20.6054 33.3575 20.3085C33.9258 20.0117 34.3703 19.5959 34.6917 19.0614C35.013 18.5272 35.1735 17.9036 35.1735 17.1913C35.1735 16.479 35.013 15.8305 34.6917 15.306C34.3703 14.7818 33.9258 14.3706 33.3575 14.0738C32.7891 13.7769 32.1147 13.6287 31.3339 13.6287H28.8288V20.754V20.7536Z" fill="white"/>
<path d="M44.0985 11.9956H42.2009L37.5303 22.3867H39.5026L40.5343 19.9814H45.7245L46.752 22.3867H48.783L44.0985 11.9956ZM41.1834 18.4681L43.1347 13.9205L45.0779 18.4681H41.1834Z" fill="white"/>
<path d="M55.135 16.3785L53.9432 18.6341V22.3863H52.0306V18.7147L47.9536 11.9953H49.9996L53.0673 17.0524L55.0734 13.7313C54.9649 14.6158 54.987 15.5073 55.135 16.3782V16.3785Z" fill="white"/>
<path d="M76.9725 24.653C76.96 24.6412 76.9475 24.6298 76.9344 24.6188L71.5947 20.1225L71.5417 20.1275C74.1919 16.3885 73.6293 11.3364 70.4135 8.26161C70.0964 7.95837 69.7537 7.67402 69.385 7.41211C69.2124 7.28918 69.0373 7.17372 68.8586 7.06469C66.8657 5.84389 64.5617 5.479 62.4025 5.89199C61.873 5.99355 61.3527 6.14142 60.848 6.33491C60.1964 6.58506 59.5708 6.91004 58.9853 7.30984C58.4814 7.65228 58.0084 8.04959 57.5743 8.5C57.2554 8.82925 56.9582 9.1863 56.6853 9.57114C55.7795 10.8486 55.2493 12.2789 55.0724 13.7313C54.9638 14.6158 54.9859 15.5073 55.134 16.3782C55.5247 18.6787 56.7917 20.8295 58.8416 22.2862C62.4762 24.8682 67.4429 24.4388 70.5804 21.2706C70.5804 21.2706 70.5836 21.3081 70.5854 21.323L75.9251 25.8192C76.2447 26.0911 76.7237 26.0519 76.9949 25.7312C76.9967 25.7305 76.9974 25.7287 76.9991 25.727C77.2881 25.4226 77.2757 24.9416 76.9717 24.6523L76.9725 24.653ZM64.7745 22.3992C60.5978 22.7608 56.9201 19.6632 56.5589 15.4813C56.1977 11.3001 59.2914 7.617 63.4673 7.25604C67.644 6.89436 71.3217 9.99126 71.6829 14.1732C72.0442 18.3551 68.9512 22.0375 64.7745 22.3992Z" fill="#EAC31B"/>
<path d="M19.9995 9.55297L21.6676 7.61808C21.8864 8.24736 22.0473 8.89197 22.1491 9.55297H19.9992H19.9995ZM22.269 10.8151V11.2691C22.269 13.9804 21.2825 16.6005 19.4931 18.6352C17.7041 20.6699 15.2349 21.9837 12.5487 22.33C9.86251 22.6725 7.14284 22.0236 4.89935 20.5067C2.6555 18.9898 1.0412 16.7042 0.359328 14.0802C-0.323259 11.4522 -0.0268067 8.6689 1.19281 6.24833C2.41207 3.8274 4.47122 1.93598 6.98447 0.924701C9.49773 -0.0865739 12.2925 -0.146438 14.846 0.757581C17.3994 1.66124 19.5358 3.46893 20.8561 5.83427H17.8923V7.10032H20.1273L17.8073 9.79207V10.8233L22.269 10.8155V10.8151ZM11.7889 5.83427H7.30833V7.12847H8.72119V10.8155H10.3679V7.12847H11.7886V5.83427H11.7889ZM17.5571 5.83427H15.8759L14.8538 9.10328L13.8242 5.83427H12.0629L13.952 10.8151H15.6549L17.5574 5.83427H17.5571Z" fill="white"/>
<path d="M68.1965 12.0623H66.221V11.046C66.221 10.7567 65.9569 10.5208 65.6341 10.5208H62.8561C62.5322 10.5208 62.2692 10.7567 62.2692 11.046V12.0623H60.2912C59.8656 12.0641 59.5175 12.3748 59.5161 12.7561V17.6752C59.5161 18.0583 59.8638 18.3708 60.2923 18.3715H68.1965C68.4339 18.3708 68.6463 18.275 68.7883 18.1239C68.9036 18.0024 68.9727 17.8463 68.9727 17.676V12.7553C68.9702 12.3748 68.6225 12.0641 68.1965 12.0623ZM65.5694 12.0623H62.9123V11.0991H65.5694V12.0623Z" fill="white"/>
</svg>
