<svg width="32" height="32" viewBox="0 0 32 32" fill="none" xmlns="http://www.w3.org/2000/svg">
<rect width="32" height="32" fill="black"/>
<path d="M5.27197 14.3795C4.94378 14.3795 4.64218 14.3257 4.3668 14.2184C4.09159 14.111 3.85147 13.9577 3.64714 13.759C3.44264 13.5604 3.2837 13.3292 3.17015 13.0655C3.05678 12.802 3 12.51 3 12.1897C3 11.8695 3.05678 11.5774 3.17015 11.314C3.28352 11.0502 3.44354 10.8194 3.65022 10.6204C3.85671 10.4218 4.09756 10.2689 4.37294 10.1611C4.64815 10.0538 4.95011 10 5.27793 10C5.62619 10 5.94424 10.0599 6.23174 10.1794C6.51906 10.2991 6.76208 10.4767 6.96062 10.7117L6.45017 11.1924C6.29232 11.026 6.11819 10.9012 5.92797 10.8181C5.73739 10.7352 5.53307 10.6934 5.31428 10.6934C5.09549 10.6934 4.88809 10.73 4.70366 10.8029C4.51923 10.8759 4.35938 10.9795 4.22395 11.1132C4.08816 11.247 3.98184 11.4053 3.90499 11.5878C3.82778 11.7703 3.78945 11.9707 3.78945 12.1897C3.78945 12.4088 3.82796 12.6094 3.90499 12.7917C3.98184 12.9742 4.08816 13.1324 4.22395 13.2662C4.35938 13.4 4.51941 13.5036 4.70366 13.5766C4.88809 13.6495 5.09133 13.6861 5.31428 13.6861C5.53723 13.6861 5.73739 13.6444 5.92797 13.5613C6.11819 13.4782 6.2925 13.3515 6.45017 13.1811L6.96062 13.6615C6.76208 13.8966 6.51906 14.0751 6.23174 14.1968C5.94406 14.3185 5.6242 14.3793 5.27197 14.3793V14.3795Z" fill="white"/>
<path d="M9.71795 10.0612H8.94026L7.02686 14.3186H7.83493L8.2575 13.3336H10.3843L10.8052 14.3186H11.6373L9.71795 10.0612ZM8.52366 12.7133L9.32287 10.85L10.119 12.7133H8.52366Z" fill="white"/>
<path d="M14.8338 12.9224C14.8553 12.9145 14.8765 12.905 14.8971 12.8958C15.1665 12.7742 15.3741 12.6014 15.52 12.3786C15.6659 12.1557 15.7385 11.8879 15.7385 11.5755C15.7385 11.263 15.6659 10.9876 15.52 10.7606C15.3741 10.5339 15.1667 10.3603 14.8971 10.2408C14.6281 10.1213 14.3049 10.0614 13.9285 10.0614H12.1787V14.3188H12.9685V13.0783H13.9283C13.9849 13.0783 14.0404 13.077 14.0945 13.0741L14.9611 14.319H15.8113L14.8338 12.9226V12.9224ZM14.6785 12.2021C14.5022 12.3523 14.2398 12.4271 13.892 12.4271H12.9683V10.73H13.892C14.2398 10.73 14.5022 10.8042 14.6785 10.9521C14.8544 11.1004 14.9425 11.308 14.9425 11.5753C14.9425 11.8425 14.8544 12.052 14.6785 12.2019V12.2021Z" fill="white"/>
<path d="M19.7418 13.6499V13.714C19.4857 13.8879 19.2454 14.0898 19.0248 14.3186H16.6182V10.0612H19.7224V10.73H17.408V11.8313H19.4613V12.4819H17.408V13.6499H19.7418Z" fill="white"/>
<path d="M21.4182 11.8313V12.4819H23.5323V11.8313H21.4182ZM20.689 10.0612V13.2188C20.9454 13.1205 21.2097 13.0452 21.4788 12.9938V10.73H23.7932V10.0612H20.689Z" fill="white"/>
<path d="M27.4139 12.9224C27.4354 12.9145 27.4566 12.905 27.4772 12.8958C27.7466 12.7742 27.9542 12.6014 28.1001 12.3786C28.246 12.1557 28.3189 11.8879 28.3189 11.5755C28.3189 11.263 28.246 10.9876 28.1001 10.7606C27.9542 10.5339 27.7468 10.3603 27.4772 10.2408C27.2081 10.1213 26.885 10.0614 26.5086 10.0614H24.7588V13.5898C24.8494 13.6452 24.9385 13.7038 25.0262 13.7663C25.2135 13.8993 25.3877 14.0436 25.5488 14.1979V13.0785H26.5086C26.5652 13.0785 26.6203 13.0772 26.6747 13.0743L27.5414 14.3192H28.3916L27.4141 12.9228L27.4139 12.9224ZM27.2588 12.2021C27.0825 12.3523 26.8201 12.4271 26.4722 12.4271H25.5486V10.73H26.4722C26.8201 10.73 27.0825 10.8042 27.2588 10.9521C27.4351 11.1004 27.5228 11.308 27.5228 11.5753C27.5228 11.8425 27.4351 12.052 27.2588 12.2019V12.2021Z" fill="white"/>
<path d="M3.44092 21.3742V16.0947H5.75321C6.31555 16.0947 6.81406 16.204 7.24856 16.4228C7.68289 16.6416 8.02047 16.9494 8.2615 17.3468C8.50253 17.744 8.62314 18.2066 8.62314 18.7345C8.62314 19.2624 8.50253 19.725 8.2615 20.122C8.02047 20.5194 7.68271 20.8274 7.24856 21.0461C6.81406 21.265 6.31555 21.3742 5.75321 21.3742H3.44092ZM4.42022 20.5444H5.69299C6.08971 20.5444 6.43236 20.4691 6.72112 20.3183C7.00989 20.1675 7.23573 19.9562 7.399 19.6846C7.56228 19.4133 7.64383 19.0964 7.64383 18.7345C7.64383 18.3726 7.56228 18.0431 7.399 17.7766C7.23573 17.5103 7.00989 17.3014 6.72112 17.1506C6.43236 16.9997 6.08971 16.9244 5.69299 16.9244H4.42022V20.5446V20.5444Z" fill="white"/>
<path d="M12.178 16.0947H11.2139L8.84082 21.3742H9.84291L10.3671 20.1521H13.0041L13.5262 21.3742H14.5581L12.178 16.0947ZM10.6969 19.3832L11.6883 17.0727L12.6756 19.3832H10.6969Z" fill="white"/>
<path d="M17.7859 18.3216L17.1804 19.4676V21.374H16.2086V19.5085L14.1372 16.0945H15.1767L16.7354 18.6639L17.7546 16.9766C17.6995 17.4259 17.7107 17.8789 17.7859 18.3214V18.3216Z" fill="white"/>
<path d="M28.8802 22.5256C28.8739 22.5196 28.8676 22.5138 28.8609 22.5082L26.1479 20.2238L26.121 20.2263C27.4675 18.3266 27.1816 15.7598 25.5478 14.1975C25.3867 14.0434 25.2125 13.899 25.0252 13.7659C24.9375 13.7034 24.8486 13.6448 24.7578 13.5894C23.7452 12.9691 22.5746 12.7837 21.4776 12.9936C21.2085 13.0452 20.9442 13.1203 20.6878 13.2186C20.3567 13.3457 20.0388 13.5108 19.7414 13.7139C19.4853 13.8879 19.245 14.0898 19.0244 14.3186C18.8624 14.4859 18.7114 14.6673 18.5728 14.8629C18.1126 15.5119 17.8432 16.2386 17.7533 16.9766C17.6981 17.4259 17.7094 17.8789 17.7846 18.3214C17.9831 19.4902 18.6268 20.583 19.6683 21.3231C21.515 22.6349 24.0385 22.4168 25.6326 20.8071C25.6326 20.8071 25.6342 20.8261 25.6351 20.8337L28.3481 23.1182C28.5105 23.2563 28.7538 23.2364 28.8916 23.0734C28.8925 23.0731 28.8929 23.0722 28.8938 23.0713C29.0406 22.9167 29.0343 22.6722 28.8799 22.5252L28.8802 22.5256ZM22.6827 21.3805C20.5607 21.5642 18.6921 19.9904 18.5086 17.8657C18.325 15.7413 19.8969 13.87 22.0186 13.6866C24.1407 13.5028 26.0092 15.0763 26.1927 17.2011C26.3763 19.3258 24.8048 21.1967 22.6827 21.3805Z" fill="#EAC31B"/>
<path d="M24.4215 16.1285H23.4178V15.6122C23.4178 15.4652 23.2837 15.3453 23.1197 15.3453H21.7082C21.5437 15.3453 21.41 15.4652 21.41 15.6122V16.1285H20.4051C20.1888 16.1294 20.012 16.2873 20.0112 16.481V18.9803C20.0112 19.175 20.1879 19.3337 20.4056 19.3341H24.4215C24.5421 19.3337 24.6501 19.285 24.7222 19.2083C24.7808 19.1465 24.8159 19.0672 24.8159 18.9807V16.4806C24.8146 16.2873 24.638 16.1294 24.4215 16.1285ZM23.0867 16.1285H21.7368V15.6391H23.0867V16.1285Z" fill="white"/>
</svg>
