<svg width="64" height="64" viewBox="0 0 64 64" fill="none" xmlns="http://www.w3.org/2000/svg">
<rect width="64" height="64" fill="black"/>
<path d="M10.5439 28.759C9.88757 28.759 9.28436 28.6514 8.73359 28.4367C8.18319 28.222 7.70294 27.9153 7.29429 27.5181C6.88528 27.1209 6.56741 26.6585 6.3403 26.1309C6.11355 25.6041 6 25.02 6 24.3795C6 23.7389 6.11355 23.1549 6.3403 22.6281C6.56704 22.1005 6.88709 21.6388 7.30044 21.2409C7.71342 20.8437 8.19512 20.5377 8.74589 20.3223C9.29629 20.1075 9.90023 20 10.5559 20C11.2524 20 11.8885 20.1199 12.4635 20.3588C13.0381 20.5982 13.5242 20.9534 13.9212 21.4234L12.9003 22.3847C12.5846 22.052 12.2364 21.8025 11.8559 21.6363C11.4748 21.4705 11.0661 21.3868 10.6286 21.3868C10.191 21.3868 9.77618 21.4599 9.40732 21.6059C9.03845 21.7518 8.71877 21.9589 8.4479 22.2265C8.17631 22.4941 7.96367 22.8105 7.80998 23.1755C7.65556 23.5405 7.5789 23.9414 7.5789 24.3795C7.5789 24.8176 7.65592 25.2188 7.80998 25.5834C7.96367 25.9484 8.17631 26.2649 8.4479 26.5325C8.71877 26.8001 9.03881 27.0072 9.40732 27.1531C9.77618 27.299 10.1827 27.3722 10.6286 27.3722C11.0745 27.3722 11.4748 27.2889 11.8559 27.1227C12.2364 26.9565 12.585 26.703 12.9003 26.3623L13.9212 27.3229C13.5242 27.7933 13.0381 28.1503 12.4635 28.3936C11.8881 28.6369 11.2484 28.7586 10.5439 28.7586V28.759Z" fill="white"/>
<path d="M19.4364 20.1223H17.881L14.0542 28.6373H15.6703L16.5155 26.6671H20.769L21.6109 28.6373H23.2751L19.4364 20.1223ZM17.0478 25.4266L18.6462 21.7L20.2385 25.4266H17.0478Z" fill="white"/>
<path d="M29.6677 25.8448C29.7107 25.8289 29.753 25.8101 29.7942 25.7916C30.3331 25.5483 30.7482 25.2028 31.0401 24.7571C31.3319 24.3114 31.4769 23.7758 31.4769 23.1509C31.4769 22.5259 31.3319 21.9752 31.0401 21.5211C30.7482 21.0678 30.3334 20.7205 29.7942 20.4815C29.2561 20.2426 28.6099 20.1227 27.857 20.1227H24.3574V28.6376H25.937V26.1566H27.8566C27.9698 26.1566 28.0808 26.1541 28.1889 26.1483L29.9222 28.638H31.6227L29.6677 25.8452V25.8448ZM29.357 24.4041C29.0044 24.7046 28.4797 24.8541 27.7839 24.8541H25.9367V21.4599H27.7839C28.4797 21.4599 29.0044 21.6084 29.357 21.9042C29.7089 22.2007 29.885 22.6161 29.885 23.1505C29.885 23.685 29.7089 24.1039 29.357 24.4037V24.4041Z" fill="white"/>
<path d="M39.484 27.2997V27.4279C38.972 27.7759 38.4914 28.1796 38.0502 28.6373H33.2368V20.1223H39.4454V21.4599H34.8164V23.6625H38.9231V24.9639H34.8164V27.2997H39.484Z" fill="white"/>
<path d="M42.8364 23.6625V24.9639H47.0646V23.6625H42.8364ZM41.3779 20.1223V26.4376C41.8907 26.241 42.4194 26.0903 42.9575 25.9875V21.4599H47.5865V20.1223H41.3779Z" fill="white"/>
<path d="M54.8278 25.8448C54.8708 25.8289 54.9132 25.8101 54.9544 25.7916C55.4932 25.5483 55.9084 25.2028 56.2002 24.7571C56.4921 24.3114 56.6378 23.7758 56.6378 23.1509C56.6378 22.5259 56.4921 21.9752 56.2002 21.5211C55.9084 21.0678 55.4936 20.7205 54.9544 20.4815C54.4163 20.2426 53.77 20.1227 53.0171 20.1227H49.5176V27.1795C49.6988 27.2903 49.877 27.4076 50.0524 27.5325C50.4271 27.7987 50.7753 28.0873 51.0976 28.3958V26.157H53.0171C53.1303 26.157 53.2406 26.1544 53.3495 26.1486L55.0828 28.6384H56.7832L54.8282 25.8456L54.8278 25.8448ZM54.5175 24.4041C54.1649 24.7046 53.6402 24.8541 52.9444 24.8541H51.0972V21.4599H52.9444C53.6402 21.4599 54.1649 21.6084 54.5175 21.9042C54.8701 22.2007 55.0455 22.6161 55.0455 23.1505C55.0455 23.685 54.8701 24.1039 54.5175 24.4037V24.4041Z" fill="white"/>
<path d="M6.88232 42.7483V32.1894H11.5069C12.6316 32.1894 13.6286 32.4081 14.4976 32.8455C15.3663 33.2832 16.0414 33.8988 16.5235 34.6936C17.0055 35.488 17.2468 36.4131 17.2468 37.469C17.2468 38.5249 17.0055 39.45 16.5235 40.2441C16.0414 41.0389 15.3659 41.6548 14.4976 42.0922C13.6286 42.5299 12.6316 42.7483 11.5069 42.7483H6.88232ZM8.84094 41.0888H11.3865C12.1799 41.0888 12.8652 40.9382 13.4427 40.6366C14.0203 40.335 14.4719 39.9124 14.7985 39.3693C15.1251 38.8265 15.2881 38.1928 15.2881 37.469C15.2881 36.7452 15.1251 36.0862 14.7985 35.5532C14.4719 35.0205 14.0203 34.6027 13.4427 34.3011C12.8652 33.9995 12.1799 33.8488 11.3865 33.8488H8.84094V41.0892V41.0888Z" fill="white"/>
<path d="M24.3564 32.1894H22.4282L17.6821 42.7483H19.6863L20.7347 40.3042H26.0088L27.0528 42.7483H29.1166L24.3564 32.1894ZM21.3943 38.7664L23.3771 34.1454L25.3517 38.7664H21.3943Z" fill="white"/>
<path d="M35.5718 36.6431L34.3607 38.9351V42.7479H32.4173V39.0169L28.2744 32.189H30.3534L33.4707 37.3278L35.5093 33.9531C35.399 34.8518 35.4214 35.7578 35.5718 36.6427V36.6431Z" fill="white"/>
<path d="M57.7605 45.0512C57.7478 45.0392 57.7352 45.0276 57.7218 45.0164L52.2958 40.4475L52.2419 40.4526C54.935 36.6532 54.3633 31.5195 51.0955 28.395C50.7733 28.0869 50.4251 27.7979 50.0504 27.5318C49.875 27.4069 49.6971 27.2895 49.5156 27.1787C47.4904 25.9382 45.1492 25.5674 42.9552 25.9871C42.4171 26.0903 41.8883 26.2406 41.3756 26.4372C40.7134 26.6914 40.0776 27.0216 39.4828 27.4279C38.9707 27.7758 38.4901 28.1796 38.0489 28.6372C37.7249 28.9718 37.4229 29.3346 37.1455 29.7257C36.2252 31.0238 35.6863 32.4772 35.5066 33.9531C35.3963 34.8518 35.4187 35.7577 35.5692 36.6427C35.9662 38.9804 37.2536 41.1659 39.3367 42.6462C43.03 45.2699 48.077 44.8335 51.2652 41.6142C51.2652 41.6142 51.2684 41.6522 51.2702 41.6674L56.6962 46.2363C57.0209 46.5126 57.5077 46.4727 57.7832 46.1468C57.7851 46.1461 57.7858 46.1443 57.7876 46.1425C58.0812 45.8333 58.0686 45.3445 57.7597 45.0504L57.7605 45.0512ZM45.3655 42.7609C41.1213 43.1285 37.3842 39.9808 37.0171 35.7313C36.6501 31.4825 39.7938 27.74 44.0372 27.3732C48.2813 27.0057 52.0184 30.1526 52.3855 34.4021C52.7526 38.6516 49.6096 42.3934 45.3655 42.7609Z" fill="#EAC31B"/>
<path d="M48.8431 32.257H46.8356V31.2243C46.8356 30.9303 46.5673 30.6906 46.2393 30.6906H43.4164C43.0873 30.6906 42.8201 30.9303 42.8201 31.2243V32.257H40.8101C40.3776 32.2588 40.0239 32.5746 40.0225 32.962V37.9607C40.0225 38.3499 40.3758 38.6675 40.8112 38.6682H48.8431C49.0843 38.6675 49.3002 38.5701 49.4445 38.4165C49.5616 38.2931 49.6318 38.1345 49.6318 37.9614V32.9613C49.6293 32.5746 49.276 32.2588 48.8431 32.257ZM46.1735 32.257H43.4735V31.2783H46.1735V32.257Z" fill="white"/>
</svg>
