<svg width="128" height="128" viewBox="0 0 128 128" fill="none" xmlns="http://www.w3.org/2000/svg">
<rect width="128" height="128" fill="black"/>
<path d="M21.0879 55.5179C19.7751 55.5179 18.5687 55.3029 17.4672 54.8734C16.3664 54.444 15.4059 53.8306 14.5886 53.0362C13.7706 52.2417 13.1348 51.317 12.6806 50.2618C12.2271 49.2082 12 48.04 12 46.759C12 45.4779 12.2271 44.3098 12.6806 43.2561C13.1341 42.201 13.7742 41.2776 14.6009 40.4818C15.4268 39.6873 16.3902 39.0754 17.4918 38.6445C18.5926 38.2151 19.8005 38 21.1117 38C22.5048 38 23.777 38.2397 24.927 38.7177C26.0762 39.1963 27.0483 39.9068 27.8425 40.8468L25.8007 42.7695C25.1693 42.1039 24.4728 41.605 23.7119 41.2726C22.9496 40.9409 22.1323 40.7736 21.2571 40.7736C20.382 40.7736 19.5524 40.9199 18.8146 41.2117C18.0769 41.5036 17.4375 41.9178 16.8958 42.453C16.3526 42.9882 15.9273 43.6211 15.62 44.3511C15.3111 45.081 15.1578 45.8827 15.1578 46.759C15.1578 47.6352 15.3118 48.4376 15.62 49.1669C15.9273 49.8969 16.3526 50.5298 16.8958 51.065C17.4375 51.6001 18.0776 52.0144 18.8146 52.3062C19.5524 52.598 20.3653 52.7443 21.2571 52.7443C22.1489 52.7443 22.9496 52.5778 23.7119 52.2454C24.4728 51.913 25.17 51.406 25.8007 50.7246L27.8425 52.6458C27.0483 53.5866 26.0762 54.3006 24.927 54.7872C23.7763 55.2739 22.4968 55.5172 21.0879 55.5172V55.5179Z" fill="white"/>
<path d="M38.8728 38.2447H35.762L28.1084 55.2745H31.3407L33.031 51.3343H41.538L43.2218 55.2745H46.5503L38.8728 38.2447ZM34.0956 48.8532L37.2925 41.3999L40.477 48.8532H34.0956Z" fill="white"/>
<path d="M59.3358 49.6897C59.4219 49.6578 59.5065 49.6201 59.5889 49.5832C60.6666 49.0966 61.4969 48.4057 62.0806 47.5142C62.6643 46.6228 62.9543 45.5517 62.9543 44.3017C62.9543 43.0518 62.6643 41.9503 62.0806 41.0422C61.4969 40.1355 60.6673 39.441 59.5889 38.9631C58.5127 38.4851 57.2202 38.2454 55.7144 38.2454H48.7153V55.2753H51.8746V50.3132H55.7137C55.9401 50.3132 56.1621 50.3081 56.3784 50.2965L59.845 55.276H63.2458L59.3358 49.6904V49.6897ZM58.7145 46.8081C58.0093 47.4092 56.9599 47.7083 55.5683 47.7083H51.8738V40.9198H55.5683C56.9599 40.9198 58.0093 41.2167 58.7145 41.8084C59.4183 42.4015 59.7705 43.2321 59.7705 44.301C59.7705 45.3699 59.4183 46.2078 58.7145 46.8074V46.8081Z" fill="white"/>
<path d="M78.9676 52.5994V52.8558C77.9435 53.5517 76.9822 54.3592 76.0998 55.2745H66.4731V38.2447H78.8902V40.9198H69.6324V45.325H77.8458V47.9277H69.6324V52.5994H78.9676Z" fill="white"/>
<path d="M85.6723 45.325V47.9277H94.1288V45.325H85.6723ZM82.7554 38.2447V50.8751C83.781 50.4819 84.8384 50.1806 85.9146 49.975V40.9198H95.1724V38.2447H82.7554Z" fill="white"/>
<path d="M109.655 49.6897C109.741 49.6578 109.826 49.6201 109.908 49.5832C110.986 49.0966 111.816 48.4057 112.4 47.5142C112.984 46.6228 113.275 45.5517 113.275 44.3017C113.275 43.0518 112.984 41.9503 112.4 41.0422C111.816 40.1355 110.987 39.441 109.908 38.9631C108.832 38.4851 107.54 38.2454 106.034 38.2454H99.0347V52.359C99.397 52.5806 99.7536 52.8152 100.104 53.0651C100.854 53.5973 101.55 54.1745 102.195 54.7915V50.3139H106.034C106.26 50.3139 106.481 50.3088 106.698 50.2972L110.165 55.2767H113.566L109.656 49.6911L109.655 49.6897ZM109.035 46.8081C108.329 47.4092 107.28 47.7083 105.888 47.7083H102.194V40.9198H105.888C107.28 40.9198 108.329 41.2167 109.035 41.8084C109.74 42.4015 110.091 43.2321 110.091 44.301C110.091 45.3699 109.74 46.2078 109.035 46.8074V46.8081Z" fill="white"/>
<path d="M13.7646 83.4966V62.3787H23.0138C25.2632 62.3787 27.2572 62.8161 28.9952 63.6909C30.7325 64.5665 32.0829 65.7976 33.047 67.3872C34.0111 68.976 34.4935 70.8263 34.4935 72.938C34.4935 75.0497 34.0111 76.9 33.047 78.4881C32.0829 80.0777 30.7318 81.3095 28.9952 82.1844C27.2572 83.0599 25.2632 83.4966 23.0138 83.4966H13.7646ZM17.6819 80.1777H22.773C24.3598 80.1777 25.7304 79.8764 26.8855 79.2731C28.0405 78.6699 28.9439 77.8248 29.597 76.7385C30.2501 75.653 30.5763 74.3856 30.5763 72.938C30.5763 71.4904 30.2501 70.1724 29.597 69.1064C28.9439 68.0411 28.0405 67.2054 26.8855 66.6021C25.7304 65.9989 24.3598 65.6976 22.773 65.6976H17.6819V80.1784V80.1777Z" fill="white"/>
<path d="M48.7129 62.3787H44.8564L35.3643 83.4966H39.3726L41.4694 78.6083H52.0175L54.1056 83.4966H58.2333L48.7129 62.3787ZM42.7886 75.5328L46.7543 66.2908L50.7033 75.5328H42.7886Z" fill="white"/>
<path d="M71.1432 71.2861L68.7209 75.8702V83.4958H64.8341V76.0339L56.5483 62.378H60.7064L66.941 72.6556L71.018 65.9062C70.7974 67.7036 70.8423 69.5155 71.1432 71.2854V71.2861Z" fill="white"/>
<path d="M115.52 88.1023C115.495 88.0784 115.47 88.0553 115.443 88.0328L104.591 78.8951L104.483 78.9052C109.87 71.3064 108.726 61.0389 102.191 54.79C101.546 54.1737 100.85 53.5958 100.1 53.0635C99.7496 52.8137 99.3937 52.5791 99.0307 52.3575C94.9804 49.8764 90.2979 49.1349 85.9098 49.9742C84.8336 50.1806 83.7762 50.4811 82.7506 50.8743C81.4263 51.3827 80.1548 52.0432 78.965 52.8557C77.9409 53.5516 76.9797 54.3591 76.0973 55.2745C75.4492 55.9436 74.8453 56.6692 74.2905 57.4514C72.4498 60.0475 71.3722 62.9544 71.0127 65.9062C70.7921 67.7036 70.8369 69.5155 71.1378 71.2854C71.932 75.9607 74.5068 80.3319 78.6728 83.2923C86.0596 88.5397 96.1535 87.6671 102.53 81.2284C102.53 81.2284 102.536 81.3044 102.54 81.3349L113.392 90.4726C114.041 91.0251 115.015 90.9455 115.566 90.2937C115.57 90.2923 115.571 90.2886 115.575 90.285C116.162 89.6666 116.137 88.6889 115.519 88.1009L115.52 88.1023ZM90.7304 83.5219C82.2422 84.2569 74.7679 77.9616 74.0338 69.4626C73.2997 60.9651 79.587 53.4799 88.0739 52.7464C96.5621 52.0113 104.036 58.3052 104.771 66.8042C105.505 75.3031 99.2187 82.7868 90.7304 83.5219Z" fill="#EAC31B"/>
<path d="M97.6866 62.514H93.6718V60.4487C93.6718 59.8606 93.1351 59.3812 92.4791 59.3812H86.8333C86.1751 59.3812 85.6406 59.8606 85.6406 60.4487V62.514H81.6207C80.7557 62.5177 80.0483 63.1491 80.0454 63.924V73.9213C80.0454 74.6998 80.752 75.3349 81.6229 75.3364H97.6866C98.1691 75.3349 98.6009 75.1401 98.8894 74.8331C99.1238 74.5861 99.2641 74.2689 99.2641 73.9228V63.9226C99.259 63.1491 98.5524 62.5177 97.6866 62.514ZM92.3475 62.514H86.9476V60.5566H92.3475V62.514Z" fill="white"/>
</svg>
