<svg width="73" height="21" viewBox="0 0 73 21" fill="none" xmlns="http://www.w3.org/2000/svg">
<path d="M20.957 10.5674C20.9568 16.3056 16.2597 20.957 10.4707 20.957C4.68175 20.9569 0.000152496 16.3105 0 10.5723V0H20.957V10.5674ZM8.42285 7.83105V16.0977H12.958V7.83105H15.9355V4.03906H12.958L8.42285 7.83105ZM42.1328 6.55469C42.9974 6.55469 43.7265 6.73228 44.3828 7.08594C45.0391 7.44008 45.5522 7.94569 45.9219 8.60156C46.2915 9.25792 46.4766 10.0233 46.4766 10.8984C46.4766 11.1482 46.4611 11.4089 46.4297 11.6797V11.6807H40.3828C40.4244 12.2224 40.5987 12.6367 40.9062 12.9229C41.2134 13.2093 41.5912 13.3525 42.0391 13.3525C42.7053 13.3525 43.169 13.071 43.4297 12.5088H46.2734C46.1276 13.0816 45.864 13.5972 45.4844 14.0557C45.1038 14.5141 44.6271 14.8735 44.0547 15.1338C43.4818 15.3944 42.8406 15.5244 42.1328 15.5244C41.2788 15.5244 40.5179 15.3421 39.8516 14.9775C39.1848 14.6129 38.6642 14.0922 38.2891 13.415C37.914 12.7382 37.7266 11.9461 37.7266 11.04C37.7266 10.1339 37.9116 9.34139 38.2812 8.66406C38.6509 7.98734 39.1692 7.46616 39.8359 7.10156C40.5023 6.73696 41.2683 6.55474 42.1328 6.55469ZM68.3545 6.55469C69.2192 6.5547 69.9481 6.73219 70.6045 7.08594C71.2608 7.44011 71.7739 7.94563 72.1436 8.60156C72.5132 9.25792 72.6982 10.0233 72.6982 10.8984C72.6982 11.1482 72.6828 11.409 72.6514 11.6797L66.6035 11.6807C66.6451 12.2224 66.8194 12.6367 67.127 12.9229C67.4341 13.2094 67.8119 13.3525 68.2598 13.3525C68.926 13.3525 69.3896 13.071 69.6504 12.5088H72.4951C72.3492 13.0817 72.0857 13.5972 71.7061 14.0557C71.3255 14.5142 70.8489 14.8735 70.2764 15.1338C69.7034 15.3945 69.0624 15.5244 68.3545 15.5244C67.5004 15.5244 66.7396 15.3421 66.0732 14.9775C65.4065 14.613 64.8859 14.0922 64.5107 13.415C64.1357 12.7382 63.9483 11.9461 63.9482 11.04C63.9482 10.1339 64.1332 9.34139 64.5029 8.66406C64.8726 7.98739 65.3909 7.46613 66.0576 7.10156C66.724 6.73699 67.4899 6.55469 68.3545 6.55469ZM49.7988 7.91504C50.0486 7.50889 50.4084 7.17991 50.877 6.92969C51.3455 6.67953 51.882 6.55471 52.4863 6.55469C53.205 6.55469 53.8561 6.73705 54.4395 7.10156C55.0224 7.46614 55.4836 7.98735 55.8223 8.66406C56.1605 9.3413 56.33 10.1279 56.3301 11.0234C56.3301 11.9191 56.1609 12.7092 55.8223 13.3916C55.4836 14.0737 55.0223 14.5996 54.4395 14.9688C53.856 15.3384 53.2052 15.5234 52.4863 15.5234C51.8715 15.5234 51.3354 15.401 50.877 15.1562C50.4185 14.9115 50.0591 14.5858 49.7988 14.1797V15.3984H47.127V4.33496H49.7988V7.91504ZM29.6885 6.68066H31.4385V8.89941H29.6885V12.3994C29.6885 12.6599 29.7513 12.8475 29.876 12.9619C30.0009 13.0767 30.2093 13.1338 30.501 13.1338H31.4551V15.3994H30.0957C29.1271 15.3994 28.3706 15.1625 27.8291 14.6885C27.2874 14.2144 27.0166 13.4409 27.0166 12.3682V8.89941H25.9541V6.68066H27.0166V6.07129L29.6885 4.04883V6.68066ZM37.6602 9.41504H36.9258C36.259 9.41505 35.759 9.55847 35.4258 9.84473C35.0923 10.1314 34.9258 10.6331 34.9258 11.3516V15.3994H32.2539V6.68066H34.9258V8.13379C35.238 7.65471 35.6286 7.27621 36.0977 7C36.5662 6.7243 37.0873 6.58595 37.6602 6.58594V9.41504ZM59.6533 15.3994H56.9814V4.33496H59.6533V15.3994ZM63.2959 15.3994H60.624V4.33496H63.2959V15.3994ZM51.6895 8.88281C51.1481 8.88287 50.7075 9.07589 50.3379 9.46094C49.9678 9.8465 49.7833 10.3728 49.7832 11.0391C49.7832 11.7054 49.9683 12.232 50.3379 12.6172C50.7075 13.0027 51.1581 13.1952 51.6895 13.1953C52.2209 13.1953 52.6741 13 53.0488 12.6094C53.424 12.2187 53.6113 11.6903 53.6113 11.0234C53.6113 10.3566 53.4259 9.8337 53.0566 9.45312V9.4541C52.687 9.07394 52.231 8.88281 51.6895 8.88281ZM42.1016 8.69629C41.633 8.69629 41.276 8.82664 40.9688 9.08691C40.6615 9.34762 40.4704 9.71721 40.3975 10.1963H43.7422C43.7422 9.73834 43.5855 9.37369 43.2734 9.10254C42.9608 8.83182 42.5701 8.69633 42.1016 8.69629ZM68.3223 8.69629C67.8538 8.69635 67.4966 8.82668 67.1895 9.08691C66.8824 9.34761 66.692 9.71736 66.6191 10.1963H69.9629C69.9629 9.73819 69.8064 9.37372 69.4941 9.10254C69.1815 8.83177 68.7909 8.69629 68.3223 8.69629ZM3.8877 7.83105H8.42285V4.03906L3.8877 7.83105Z" fill="white"/>
</svg>
